<svg width="190" height="122" viewBox="0 0 190 122" fill="none" xmlns="http://www.w3.org/2000/svg">
<path d="M2 86.1262C7.86801 72.4174 20.962 59.4286 33.9974 48.0021C47.3847 36.2671 62.8661 25.4245 78.9906 15.1255C85.9878 10.6563 93.2268 5.81092 101.783 2.44294C104.078 1.53939 104.022 2.07835 104.244 3.51384C104.52 5.30428 103.757 7.22608 103.087 8.94484C100.212 16.3227 95.4491 23.4834 91.125 30.5618C79.7468 49.187 69.3755 68.0079 61.6628 87.3654C58.6832 94.8437 56.3581 102.409 54.4757 110.023C53.7086 113.125 52.7066 116.393 52.9743 119.554C53.0578 120.54 54.2788 119.657 54.2788 119.141C54.2788 117.233 54.7218 115.355 54.7218 113.45C54.7218 111.855 55.4972 110.357 56.5432 108.891C62.9501 99.9083 75.043 92.6838 82.978 84.1986C86.8573 80.0502 91.2897 75.2332 91.4942 70.2769C91.5529 68.854 91.3151 71.3446 91.2234 71.6232C88.7014 79.2868 85.8564 86.8927 83.5441 94.5864C82.3521 98.5522 81.214 102.521 80.5166 106.535C80.161 108.581 79.3823 111.142 80.0736 113.205C80.7252 115.149 91.2933 108.994 91.9372 108.523C95.4161 105.983 98.04 103.012 100.035 99.9256C101.656 97.4172 102.226 94.4334 104.441 92.0927C104.605 91.9195 107.694 89.722 107.887 90.3792C108.201 91.4523 107.247 92.904 106.73 93.8826C105.836 95.5739 104.953 97.2906 103.899 98.9465C103.556 99.4851 102.619 101.071 102.619 100.492C102.619 98.9488 104.609 96.9241 105.425 95.5502C108.582 90.2371 111.392 84.8439 114.04 79.4255C117.68 71.9782 122.752 63.9109 122.95 56.0186C122.984 54.6532 122.686 57.0996 122.679 57.1354C121.847 61.3885 120.538 65.5977 119.11 69.7873C114.152 84.3357 107.34 98.6348 102.767 113.235C102.125 115.287 103.698 111.652 103.702 111.644C107.288 105.182 112.085 98.9922 117.289 92.98C121.373 88.2615 125.549 82.5633 131.319 78.4922C132.597 77.5903 132.248 79.5728 132.254 79.7926C132.314 82.104 132.212 84.4111 132.352 86.7229C132.504 89.2195 132.711 91.4775 133.238 93.9591C133.439 94.9033 133.609 95.8576 134.026 96.7741C134.469 97.7467 134.937 98.1945 136.094 97.386C138.148 95.9495 138.887 93.8887 140.77 92.3987C140.949 92.2574 140.887 92.7548 140.869 92.9341C140.752 94.0925 140.659 95.2484 140.869 96.4069C141.205 98.2674 141.952 99.4323 145.176 98.6405C151.458 97.098 157.25 94.5006 162.824 92.1845C167.423 90.2734 171.854 88.32 175.918 85.9886C177.011 85.3616 177.099 87.2597 177.296 87.6561C179.099 91.279 181.868 94.6782 185.123 97.8756C185.343 98.091 188.409 100.404 187.954 100.828C187.13 101.596 178.299 101.258 177.641 101.272C156.767 101.719 135.875 101.73 115 102.174C99.371 102.507 83.7114 102.948 68.1607 104.026C62.3061 104.431 55.1172 104.754 49.5776 106.305C44.5262 107.72 55.1914 107.971 55.6079 107.973C70.2665 108.02 85.0476 106.011 99.1736 103.781C112.841 101.623 126.144 98.7499 139.589 96.1315C139.882 96.0744 144.216 94.745 144.216 95.7644" stroke="black" stroke-width="3" stroke-linecap="round" stroke-linejoin="round"/>
</svg>
